<?xml version="1.0" encoding="utf-8"?>
<!-- Generator: Adobe Illustrator 22.1.0, SVG Export Plug-In . SVG Version: 6.00 Build 0)  -->
<svg version="1.1" id="Layer_1" xmlns="http://www.w3.org/2000/svg" xmlns:xlink="http://www.w3.org/1999/xlink" x="0px" y="0px"
	 viewBox="0 0 358.3 72" enable-background="new 0 0 358.3 72" xml:space="preserve">
<g>
	<path fill="#005589" d="M85.2,21L49.9,4.8c-0.4-0.2-0.9-0.2-1.3,0L9.2,21.1c-0.3,0.1-0.5,0.5-0.5,0.9c0,0.4,0.2,0.8,0.5,0.9l8.5,4
		c0.5,0.2,1.1,0.3,1.6,0l2.2-0.9l5.7,2.7c0.2-0.3,0.5-0.5,0.8-0.6l17.1-7.6c0,0,0.4-0.2,0.4-0.2c0.1-1.2,1.3-2.2,2.9-2.2l0.6,0
		c1.6,0,2.9,1,2.8,2.2c0,1.2-1.3,2.2-2.9,2.2l-0.6,0c-0.8,0-1.5-0.2-2-0.6L30,29c-0.8,0.4-1.4,0.9-1.4,2.2l-0.1,21.1l0,0l0,0.2
		c-0.7,0.3-1.1,1-1,1.9c0.1,0.5,0.4,1.7,0.6,2.2c-0.4,0.1-0.6,0.4-0.6,0.9l0,1c0,0.4,0.2,0.7,0.5,0.8c-0.3,0.3-0.4,0.7-0.3,1.2
		c0.1,0.4-0.6,5.1-0.8,7.6c0,0.5,0.3,0.9,0.7,0.9l3.4,0c0.4,0,0.8-0.4,0.7-0.9c-0.3-2.5-0.9-7.2-0.9-7.6c0-0.4-0.1-0.8-0.4-1.2
		c0.4-0.1,0.6-0.4,0.6-0.9l0-1c0-0.4-0.3-0.8-0.6-0.9c0.2-0.5,0.5-1.7,0.6-2.2c0.1-0.8-0.4-1.5-0.8-1.7l0-3.4
		c1.6,0.9,12.6,6.4,18.8,6.4c6.8,0,22-7.3,24.5-10.3c1.1-1.3,2.1-3.3,2.1-5.6l0-10.4L50,39.8c-0.4,0.2-0.9,0.2-1.3,0l-17.8-8.4
		c0-0.7,0.4-1,2-1.5l15.9,7.4c0.4,0.2,0.9,0.2,1.3,0l35.1-14.3c0.3-0.1,0.5-0.5,0.5-0.9l0-0.3C85.7,21.5,85.5,21.2,85.2,21z"/>
	<path fill="#005589" d="M27,31l-5.4-2.5l0,10.4c0,2.3,1,4.3,2.1,5.6c0.8,1,2,1.8,3.3,2.7L27,31z"/>
</g>
<g>
	<g>
		<path fill="#005589" d="M102.8,15.4h-4.6v-4.2h14v4.2h-4.6V39h-4.8V15.4z"/>
		<path fill="#005589" d="M114.6,39V11.2h4.3v9c1.6-1.4,2.5-2.3,5-2.3c2.3,0,3.6,1.7,3.6,4.3V39h-4.3V23c0-1-0.6-1.5-1.5-1.5
			c-0.9,0-1.8,0.6-2.8,1.3V39H114.6z"/>
		<path fill="#005589" d="M143.5,29.5h-9.1v3c0,2.4,0.8,3.4,2.4,3.4c1.5,0,2.4-1,2.4-3.4V32h4.3c-0.1,4.4-1.9,7.4-6.7,7.4
			c-4.9,0-6.7-3.2-6.7-7.7v-6.1c0-4.5,1.8-7.7,6.7-7.7c4.9,0,6.7,3.2,6.7,7.7V29.5z M139.2,25.9v-1.1c0-2.4-0.8-3.4-2.4-3.4
			c-1.5,0-2.4,1-2.4,3.4v1.1H139.2z"/>
		<path fill="#005589" d="M152.8,39V11.2h12.8v4.2h-8v7.2h6.2v4.2h-6.2v8.2h8.5V39H152.8z"/>
		<path fill="#005589" d="M177.7,39v-2.2h-0.1c-1.4,1.8-2.5,2.5-4.6,2.5c-2.7,0-4.4-2-4.4-5.8v-9.9c0-3.8,1.7-5.8,4.4-5.8
			c1.9,0,2.8,0.8,4.5,2.2v-8.9h4.3V39H177.7z M177.5,22.5c-0.8-0.6-1.6-1.1-2.5-1.1c-1.2,0-2.1,0.6-2.1,3.3v7.7
			c0,2.7,0.9,3.3,2.1,3.3c0.8,0,1.6-0.5,2.5-1.1V22.5z"/>
		<path fill="#005589" d="M197.8,18.3V39h-4.1v-2.1c-1.8,1.5-2.7,2.5-5.2,2.5c-2.3,0-3.6-1.7-3.6-4.3V18.3h4.3v16.1
			c0,1,0.6,1.5,1.5,1.5c0.9,0,1.8-0.6,2.8-1.3V18.3H197.8z"/>
		<path fill="#005589" d="M209.6,25.4v-0.5c0-2.4-0.8-3.4-2.4-3.4c-1.5,0-2.4,1-2.4,3.4v7.6c0,2.4,0.8,3.4,2.4,3.4
			c1.5,0,2.4-1,2.4-3.4v-1.3h4.3v0.5c0,4.5-1.8,7.7-6.7,7.7s-6.7-3.2-6.7-7.7v-6.1c0-4.5,1.8-7.7,6.7-7.7c4.8,0,6.6,3,6.7,7.5H209.6
			z"/>
		<path fill="#005589" d="M216.6,24.4c0.2-4.2,2.9-6.5,6.9-6.5c4,0,6.3,1.8,6.3,5.6v13.3c0,0.7,0.2,1.5,0.3,2.2h-4.1
			c0-0.6-0.2-1.1-0.2-1.6c-1.6,1.3-3,2-5,2c-2.9,0-4.4-2-4.4-4.7c0-4.5,3-7,9.2-9.4v-1.2c0-1.7-0.7-2.7-2.1-2.7
			c-2,0-2.4,1.2-2.5,2.9H216.6z M225.5,28.5c-3.9,2.2-4.9,3.7-4.9,5.5c0,1.3,0.7,1.9,2,1.9c1.2,0,2.2-0.9,2.9-1.9V28.5z"/>
		<path fill="#005589" d="M231.4,21.9v-3.5h2.4v-5.6h4.3v5.6h2.9v3.5h-2.9v11.9c0,1.1,0.5,1.7,1.5,1.7h1.4v3.7
			c-0.6,0.2-1.1,0.2-2.2,0.2c-3.2,0-5-1.5-5-4.7V21.9H231.4z"/>
		<path fill="#005589" d="M243.8,15.2v-3.9h4.3v3.9H243.8z M243.8,39V18.3h4.3V39H243.8z"/>
		<path fill="#005589" d="M250.9,25.6c0-4.5,1.8-7.7,6.7-7.7c4.9,0,6.7,3.2,6.7,7.7v6.1c0,4.5-1.8,7.7-6.7,7.7
			c-4.9,0-6.7-3.2-6.7-7.7V25.6z M260,24.9c0-2.4-0.8-3.4-2.4-3.4c-1.5,0-2.4,1-2.4,3.4v7.6c0,2.4,0.8,3.4,2.4,3.4
			c1.5,0,2.4-1,2.4-3.4V24.9z"/>
		<path fill="#005589" d="M267.4,39V18.3h4.1v2.1c1.8-1.5,2.7-2.5,5.2-2.5c2.3,0,3.6,1.7,3.6,4.3V39H276V23c0-1-0.6-1.5-1.5-1.5
			c-0.9,0-1.8,0.6-2.8,1.3V39H267.4z"/>
		<path fill="#005589" d="M288.4,39V11.2h6.9c5.9,0,8.6,2.3,8.6,8.2s-2.7,8.2-8.6,8.2h-2.1V39H288.4z M293.1,23.7h1.8
			c3.1,0,4.1-1,4.1-4.3s-1-4.3-4.1-4.3h-1.8V23.7z"/>
		<path fill="#005589" d="M306,39V11.2h4.3V39H306z"/>
		<path fill="#005589" d="M313.7,24.4c0.2-4.2,2.9-6.5,6.9-6.5c4,0,6.3,1.8,6.3,5.6v13.3c0,0.7,0.2,1.5,0.3,2.2H323
			c0-0.6-0.2-1.1-0.2-1.6c-1.6,1.3-3,2-5,2c-2.9,0-4.4-2-4.4-4.7c0-4.5,3-7,9.2-9.4v-1.2c0-1.7-0.7-2.7-2.1-2.7
			c-2,0-2.4,1.2-2.5,2.9H313.7z M322.5,28.5c-3.9,2.2-4.9,3.7-4.9,5.5c0,1.3,0.7,1.9,2,1.9c1.2,0,2.2-0.9,2.9-1.9V28.5z"/>
		<path fill="#005589" d="M330.1,39V18.3h4.1v2.1c1.8-1.5,2.7-2.5,5.2-2.5c2.3,0,3.6,1.7,3.6,4.3V39h-4.3V23c0-1-0.6-1.5-1.5-1.5
			c-0.9,0-1.8,0.6-2.8,1.3V39H330.1z"/>
	</g>
	<g>
		<g>
			<path fill="#005589" d="M346.9,11.2c1.7,0,3.1,1.4,3.1,3.1c0,1.7-1.4,3.1-3.1,3.1c-1.7,0-3.1-1.4-3.1-3.1
				C343.7,12.6,345.1,11.2,346.9,11.2z M346.9,16.8c1.3,0,2.3-1,2.3-2.4s-1.1-2.4-2.3-2.4s-2.3,1-2.3,2.4S345.6,16.8,346.9,16.8z
				 M346.4,16.1h-0.8v-3.5h1.4c0.9,0,1.3,0.4,1.3,1.1c0,0.5-0.2,0.9-0.8,0.9l0.9,1.5h-0.9l-0.8-1.5h-0.3V16.1z M346.4,14.1h0.7
				c0.2,0,0.5-0.2,0.5-0.4c0-0.3-0.2-0.4-0.5-0.4h-0.7V14.1z"/>
		</g>
	</g>
</g>
<g>
	<path fill="#97CD79" d="M99.4,61.3l3.6-14.3h3.5l3.5,14.3h-2.6l-0.7-3h-3.8l-0.8,3H99.4z M103.4,55.8h2.7l-1.3-5.8h0L103.4,55.8z"
		/>
	<path fill="#97CD79" d="M117.4,46.9h2.5v14.3h-2.5V46.9z"/>
	<path fill="#97CD79" d="M122.3,49.2v-2.3h2.5v2.3H122.3z M124.8,51.1v10.2h-2.5V51.1H124.8z"/>
	<path fill="#97CD79" d="M127,53v-2h1V48h2.5V51h1.6v2h-1.6v5.5c0,0.5,0.5,0.8,1.1,0.8c0.2,0,0.3,0,0.5,0v2.1
		c-0.5,0.1-1,0.1-1.4,0.1c-1.6,0-2.7-0.6-2.7-2.1V53H127z"/>
	<path fill="#97CD79" d="M133.7,53v-2h1V48h2.5V51h1.6v2h-1.6v5.5c0,0.5,0.5,0.8,1.1,0.8c0.2,0,0.3,0,0.5,0v2.1
		c-0.5,0.1-1,0.1-1.4,0.1c-1.6,0-2.7-0.6-2.7-2.1V53H133.7z"/>
	<path fill="#97CD79" d="M141,46.9h2.5v14.3H141V46.9z"/>
	<path fill="#97CD79" d="M147.8,56.5v1.4c0,1.1,0.6,1.6,1.5,1.6c1.1,0,1.5-0.7,1.5-1.5h2.5c-0.1,2.2-1.5,3.5-4,3.5
		c-2.4,0-4-1.5-4-3.8v-3.5c0-2.4,1.6-3.8,4-3.8c2.3,0,4,1.5,4,3.7v2.5H147.8z M150.7,54.5v-0.6c0-1-0.5-1.5-1.5-1.5
		c-1,0-1.5,0.6-1.5,1.5v0.6H150.7z"/>
	<path fill="#97CD79" d="M161.1,53v-2h1V48h2.5V51h1.6v2h-1.6v5.5c0,0.5,0.5,0.8,1.1,0.8c0.2,0,0.3,0,0.5,0v2.1
		c-0.5,0.1-1,0.1-1.4,0.1c-1.6,0-2.7-0.6-2.7-2.1V53H161.1z"/>
	<path fill="#97CD79" d="M167.9,54.4c0-2.9,1.5-4.1,4-4.1c2.5,0,4,1.2,4,4.1v3c0,2.9-1.5,4.1-4,4.1c-2.5,0-4-1.2-4-4.1V54.4z
		 M170.4,58c0,0.8,0.6,1.3,1.5,1.3c0.9,0,1.5-0.4,1.5-1.3v-4.3c0-0.8-0.6-1.3-1.5-1.3c-0.9,0-1.5,0.4-1.5,1.3V58z"/>
	<path fill="#97CD79" d="M183.2,61.3V60h0c-0.4,0.7-1.5,1.5-2.7,1.5c-1.9,0-2.7-1.5-2.7-4.3v-2.6c0-2.8,0.8-4.3,2.7-4.3
		c0.7,0,1.3,0.3,2.5,1.2v-4.5h2.5v14.3H183.2z M183,52.9c-0.5-0.5-1-0.8-1.5-0.8c-0.7,0-1.2,0.4-1.2,2.6V57c0,2.1,0.6,2.6,1.2,2.6
		c0.6,0,1-0.2,1.5-0.8V52.9z"/>
	<path fill="#97CD79" d="M187.7,53.6c0.2-2.4,2-3.4,4-3.4c2.7,0,3.7,1.4,3.7,3.3v6.9c0,0.3,0.1,0.6,0.1,0.9h-2.5
		c-0.1-0.3-0.1-0.6-0.2-1.1c-0.7,0.7-1.7,1.3-3,1.3c-1.5,0-2.5-0.8-2.5-2.6c0-2.5,2.4-3.6,5.5-4.5v-0.8c0-0.9-0.6-1.3-1.3-1.3
		c-0.8,0-1.4,0.6-1.4,1.3H187.7z M192.9,56c-1.5,0.5-3,1.4-3,2.5c0,0.7,0.4,1.1,1.1,1.1c0.8,0,1.3-0.4,1.9-1V56z"/>
	<path fill="#97CD79" d="M197.3,62.9c0.2,0,0.5,0,0.7,0c1.1,0,1.8-1,1.8-1.4c0-0.6-0.2-1.4-0.5-2.3l-2.5-8.7h2.5l1.7,7.2h0l1.6-7.2
		h2.5l-2.9,10.8c-0.8,2.9-1.8,3.9-4.3,3.9c-0.2,0-0.5,0-0.8,0V62.9z"/>
	<path fill="#97CD79" d="M221.8,52.4c-0.2,0-0.6-0.2-0.8-0.2c-0.3,0-0.5,0.1-0.9,0.2c0.2,0.7,0.3,1.3,0.3,1.9c0,2.7-1.2,4.3-3.6,4.3
		c-0.4,0-0.7,0-1-0.1c-0.1,0.2-0.4,0.4-0.4,0.6c0,1.4,6.3-0.7,6.3,3.2c0,1.8-1.9,2.7-4.8,2.7c-2.7,0-4.1-0.8-4.1-2
		c0-0.8,0.9-1.3,1.5-1.7c-0.6-0.4-1-0.8-1-1.5c0-0.9,0.9-1.4,1.5-1.8c-1.2-0.8-1.6-1.9-1.6-3.8c0-2.3,0.9-4.1,3.7-4.1
		c1,0,2.2,0.5,2.8,1.3c0.6-0.8,1.3-1.3,2.2-1.3V52.4z M215.6,61.7c-0.3,0.3-0.5,0.5-0.5,0.9c0,0.6,0.8,0.8,2.3,0.8
		c1.2,0,1.9-0.3,1.9-0.9c0-0.4-0.2-0.5-0.9-0.6L215.6,61.7z M216.8,52.2c-1,0-1.3,0.7-1.3,2.3c0,1.4,0.4,2,1.2,2
		c1.1,0,1.4-0.4,1.4-2.3C218.1,52.9,217.6,52.2,216.8,52.2z"/>
	<path fill="#97CD79" d="M223,54.3c0-2.9,1.5-4.1,4-4.1c2.5,0,4,1.2,4,4.1v3c0,2.9-1.5,4.1-4,4.1c-2.5,0-4-1.2-4-4.1V54.3z
		 M225.5,57.9c0,0.8,0.6,1.3,1.5,1.3c0.9,0,1.5-0.4,1.5-1.3v-4.3c0-0.8-0.6-1.3-1.5-1.3c-0.9,0-1.5,0.4-1.5,1.3V57.9z"/>
	<path fill="#97CD79" d="M235.1,56.4v1.4c0,1.1,0.6,1.6,1.5,1.6c1.1,0,1.5-0.7,1.5-1.5h2.5c-0.1,2.2-1.5,3.5-4,3.5
		c-2.4,0-4-1.5-4-3.8V54c0-2.4,1.6-3.8,4-3.8c2.3,0,4,1.5,4,3.7v2.5H235.1z M238,54.4v-0.6c0-1-0.5-1.5-1.5-1.5s-1.5,0.6-1.5,1.5
		v0.6H238z"/>
	<path fill="#97CD79" d="M247.3,53.7c-0.3-1-1-1.5-1.7-1.5c-0.6,0-1,0.4-1,1c0,1.7,4.9,1.7,4.9,4.9c0,2.1-1.5,3.3-3.6,3.3
		c-1.5,0-2.9-0.4-4.1-3.1l2.2-0.6c0.2,1,0.8,1.7,1.8,1.7c0.8,0,1.2-0.4,1.2-1c0-2.1-4.9-1.6-4.9-5.2c0-2,1.6-3,3.4-3
		c1.9,0,3.2,1.1,3.8,2.7L247.3,53.7z"/>
	<path fill="#97CD79" d="M255.7,53.6c0.2-2.4,2-3.4,4-3.4c2.7,0,3.7,1.4,3.7,3.3v6.9c0,0.3,0.1,0.6,0.1,0.9H261
		c-0.1-0.3-0.1-0.6-0.2-1.1c-0.7,0.7-1.7,1.3-3,1.3c-1.5,0-2.5-0.8-2.5-2.6c0-2.5,2.4-3.6,5.5-4.5v-0.8c0-0.9-0.6-1.3-1.3-1.3
		c-0.8,0-1.4,0.6-1.4,1.3H255.7z M260.9,56c-1.5,0.5-3,1.4-3,2.5c0,0.7,0.4,1.1,1.1,1.1c0.8,0,1.3-0.4,1.9-1V56z"/>
	<path fill="#97CD79" d="M272.3,46.9h2.5v14.3h-2.5V46.9z"/>
	<path fill="#97CD79" d="M276.8,54.4c0-2.9,1.5-4.1,4-4.1c2.5,0,4,1.2,4,4.1v3c0,2.9-1.5,4.1-4,4.1c-2.5,0-4-1.2-4-4.1V54.4z
		 M279.3,58c0,0.8,0.6,1.3,1.5,1.3c0.9,0,1.5-0.4,1.5-1.3v-4.3c0-0.8-0.6-1.3-1.5-1.3c-0.9,0-1.5,0.4-1.5,1.3V58z"/>
	<path fill="#97CD79" d="M286.6,61.3V50.5h2.4v1.2c0.9-0.8,1.8-1.4,2.8-1.4c1.5,0,2.3,0.8,2.3,2.8v8.2h-2.5v-7.9
		c0-0.7-0.2-1.2-0.9-1.2c-0.5,0-1.1,0.5-1.6,1v8.2H286.6z"/>
	<path fill="#97CD79" d="M304.9,52.5c-0.2,0-0.6-0.2-0.8-0.2c-0.3,0-0.5,0.1-0.9,0.2c0.2,0.7,0.3,1.3,0.3,1.9c0,2.7-1.2,4.3-3.6,4.3
		c-0.4,0-0.7,0-1-0.1c-0.1,0.2-0.4,0.4-0.4,0.6c0,1.4,6.3-0.7,6.3,3.2c0,1.8-1.9,2.7-4.8,2.7c-2.7,0-4.1-0.8-4.1-2
		c0-0.8,0.9-1.3,1.5-1.7c-0.6-0.4-1-0.8-1-1.5c0-0.9,0.9-1.4,1.5-1.8c-1.2-0.8-1.6-1.9-1.6-3.8c0-2.3,0.9-4.1,3.7-4.1
		c1,0,2.2,0.5,2.8,1.3c0.6-0.8,1.3-1.3,2.2-1.3V52.5z M298.7,61.8c-0.3,0.3-0.5,0.5-0.5,0.9c0,0.6,0.8,0.8,2.3,0.8
		c1.2,0,1.9-0.3,1.9-0.9c0-0.4-0.2-0.5-0.9-0.6L298.7,61.8z M299.8,52.3c-1,0-1.3,0.7-1.3,2.3c0,1.4,0.4,2,1.2,2
		c1.1,0,1.4-0.4,1.4-2.3C301.2,53,300.7,52.3,299.8,52.3z"/>
	<path fill="#97CD79" d="M312.1,50.5h2.3l1.5,6.8h0l1.5-6.8h2.1l1.5,6.8h0l1.4-6.8h2.3l-2.5,10.8H320l-1.5-6.8h0l-1.3,6.8h-2.3
		L312.1,50.5z"/>
	<path fill="#97CD79" d="M325.8,53.6c0.2-2.4,2-3.4,4-3.4c2.7,0,3.7,1.4,3.7,3.3v6.9c0,0.3,0.1,0.6,0.1,0.9h-2.5
		c-0.1-0.3-0.1-0.6-0.2-1.1c-0.7,0.7-1.7,1.3-3,1.3c-1.5,0-2.5-0.8-2.5-2.6c0-2.5,2.4-3.6,5.5-4.5v-0.8c0-0.9-0.6-1.3-1.3-1.3
		c-0.8,0-1.4,0.6-1.4,1.3H325.8z M330.9,56c-1.5,0.5-3,1.4-3,2.5c0,0.7,0.4,1.1,1.1,1.1c0.8,0,1.3-0.4,1.9-1V56z"/>
	<path fill="#97CD79" d="M335.5,62.9c0.2,0,0.5,0,0.7,0c1.1,0,1.8-1,1.8-1.4c0-0.6-0.2-1.4-0.5-2.3l-2.5-8.7h2.5l1.7,7.2h0l1.6-7.2
		h2.5l-2.9,10.8c-0.8,2.9-1.8,3.9-4.3,3.9c-0.2,0-0.5,0-0.8,0V62.9z"/>
</g>
</svg>
